<?xml version="1.0" encoding="UTF-8"?>
<svg version="1.1" xmlns="http://www.w3.org/2000/svg" width="1500" height="501">
<path d="M0 0 C495 0 990 0 1500 0 C1500 165.33 1500 330.66 1500 501 C1005 501 510 501 0 501 C0 335.67 0 170.34 0 0 Z " fill="#FEFEFE" transform="translate(0,0)"/>
<path d="M0 0 C11.55 0 23.1 0 35 0 C35 1.98 35 3.96 35 6 C39.62 6 44.24 6 49 6 C49 4.02 49 2.04 49 0 C52.63 0 56.26 0 60 0 C60 4.95 60 9.9 60 15 C65.94 15 71.88 15 78 15 C79.9490625 18.34125 79.9490625 18.34125 81.9375 21.75 C82.34605225 22.44448242 82.75460449 23.13896484 83.17553711 23.85449219 C84.96957466 26.96278219 86.12189249 29.48756995 87 33 C96.9 33 106.8 33 117 33 C117 34.98 117 36.96 117 39 C121.29 39 125.58 39 130 39 C130 37.02 130 35.04 130 33 C133.63 33 137.26 33 141 33 C141 37.95 141 42.9 141 48 C146.94 48 152.88 48 159 48 C160.9490625 51.34125 160.9490625 51.34125 162.9375 54.75 C163.34605225 55.44448242 163.75460449 56.13896484 164.17553711 56.85449219 C165.96957466 59.96278219 167.12189249 62.48756995 168 66 C112.56 66 57.12 66 0 66 C0 44.22 0 22.44 0 0 Z " fill="#FEFEFD" transform="translate(0,435)"/>
<path d="M0 0 C0.896689 0.00404846 1.79337799 0.00809692 2.71723938 0.01226807 C4.1320031 0.00701111 4.1320031 0.00701111 5.5753479 0.00164795 C8.70409936 -0.00718015 11.8326261 -0.00131639 14.96138 0.00543213 C17.12849471 0.00408579 19.29560911 0.00214552 21.46272278 -0.00036621 C26.00901662 -0.00331894 30.55523199 0.00098496 35.10151672 0.01031494 C40.93950904 0.02170952 46.77731748 0.01515085 52.61530304 0.00317001 C57.09158218 -0.00404456 61.56781747 -0.00176251 66.0440979 0.0034256 C68.19716412 0.00476321 70.35023427 0.0031105 72.5032959 -0.00153351 C75.50831199 -0.00659211 78.51302706 0.00110216 81.51802063 0.01226807 C82.41470963 0.0082196 83.31139862 0.00417114 84.23526001 0 C90.38910247 0.04252959 90.38910247 0.04252959 92.61763 2.27105713 C92.89833703 4.98262914 93.08330767 7.61544709 93.18013 10.33355713 C92.94188947 15.19043476 92.94188947 15.19043476 94.61763 19.27105713 C97.35657085 19.35964359 100.07016271 19.38629192 102.80903625 19.36871338 C104.03879433 19.36659096 104.03879433 19.36659096 105.293396 19.36442566 C107.92234383 19.35881002 110.55120774 19.34625492 113.18013 19.33355713 C114.95812357 19.32854414 116.73611846 19.32398089 118.51411438 19.31988525 C122.88198546 19.30883551 127.24979348 19.29156044 131.61763 19.27105713 C131.67821594 17.98328369 131.73880188 16.69551025 131.80122375 15.36871338 C131.88561247 13.69031554 131.9702613 12.01193077 132.05513 10.33355713 C132.09444641 9.48342041 132.13376282 8.63328369 132.17427063 7.75738525 C132.21616516 6.94849854 132.25805969 6.13961182 132.30122375 5.30621338 C132.35621033 4.18291626 132.35621033 4.18291626 132.41230774 3.03692627 C132.61763 1.27105713 132.61763 1.27105713 133.61763 0.27105713 C137.7334059 0.05316527 141.85227923 0.08526525 145.9733429 0.08575439 C148.04313264 0.08356979 150.11238793 0.06542222 152.18208313 0.04644775 C154.12824524 0.04354736 154.12824524 0.04354736 156.11372375 0.04058838 C157.31182678 0.03647949 158.50992981 0.03237061 159.74433899 0.02813721 C162.61763 0.27105713 162.61763 0.27105713 164.61763 2.27105713 C164.86486816 4.13728333 164.86486816 4.13728333 164.86054993 6.42950439 C164.86362656 7.28701797 164.86670319 8.14453156 164.86987305 9.0280304 C164.85909477 10.41869972 164.85909477 10.41869972 164.84809875 11.83746338 C164.84764053 12.78669174 164.84718231 13.7359201 164.84671021 14.71391296 C164.84368639 16.72215015 164.83579625 18.73038497 164.82344055 20.73858643 C164.8051844 23.82436362 164.80293082 26.90984096 164.80317688 29.9956665 C164.79826184 31.94293474 164.79243358 33.89020093 164.78559875 35.83746338 C164.78448593 36.76660049 164.78337311 37.69573761 164.78222656 38.6530304 C164.77584671 39.50739182 164.76946686 40.36175323 164.76289368 41.24200439 C164.75908188 41.99764175 164.75527008 42.75327911 164.75134277 43.53181458 C164.61763 45.27105713 164.61763 45.27105713 163.61763 46.27105713 C160.94512933 46.37150766 158.29844419 46.40722361 155.6254425 46.40045166 C154.7880957 46.40220398 153.9507489 46.4039563 153.08802795 46.40576172 C150.30620787 46.41018114 147.5244508 46.40724193 144.74263 46.40386963 C142.81831347 46.40454264 140.89399703 46.40551265 138.96968079 46.4067688 C134.93109836 46.40824589 130.892538 46.40609084 126.85395813 46.40142822 C121.6649449 46.39573093 116.47598338 46.39900987 111.28697205 46.40500069 C107.3117178 46.40860599 103.33647592 46.40746786 99.36122131 46.40487289 C97.4473622 46.40420354 95.53350199 46.40503235 93.61964417 46.40735245 C90.9496715 46.40987846 88.2797838 46.40603911 85.6098175 46.40045166 C84.81082031 46.40247589 84.01182312 46.40450012 83.18861389 46.40658569 C77.7318925 46.38531962 77.7318925 46.38531962 76.61763 45.27105713 C76.29411699 42.43133178 76.1045871 39.59031976 75.89888 36.73980713 C75.88377736 34.32969663 75.88377736 34.32969663 74.61763 33.27105713 C72.99505456 33.17189142 71.36823169 33.14025936 69.74263 33.13824463 C68.75778625 33.13695557 67.7729425 33.1356665 66.758255 33.13433838 C65.20364563 33.14013916 65.20364563 33.14013916 63.61763 33.14605713 C62.58122375 33.14218994 61.5448175 33.13832275 60.477005 33.13433838 C59.49216125 33.13562744 58.5073175 33.1369165 57.49263 33.13824463 C56.12751282 33.13993652 56.12751282 33.13993652 54.7348175 33.1416626 C52.63234521 33.03545704 52.63234521 33.03545704 51.61763 34.27105713 C51.40925581 36.10011948 51.25013341 37.93493847 51.11763 39.77105713 C50.72874112 45.15994602 50.72874112 45.15994602 49.61763 46.27105713 C47.83771077 46.36476337 46.05406261 46.38849984 44.27168274 46.38458252 C43.13057541 46.38450699 41.98946808 46.38443146 40.81378174 46.38435364 C39.5721376 46.37919235 38.33049347 46.37403107 37.05122375 46.36871338 C35.15558434 46.36659096 35.15558434 46.36659096 33.22164917 46.36442566 C29.85638111 46.35976295 26.49118011 46.35077193 23.12593079 46.33972168 C19.69413331 46.32950559 16.26232892 46.32492762 12.83052063 46.31988525 C6.09287176 46.30883093 -0.64474524 46.29207423 -7.38237 46.27105713 C-8.51729279 44.00121154 -8.51457503 42.74050613 -8.52763367 40.22027588 C-8.53401352 39.38601074 -8.54039337 38.55174561 -8.54696655 37.69219971 C-8.54807938 36.79009766 -8.5491922 35.88799561 -8.55033875 34.95855713 C-8.55366714 34.03389648 -8.55699554 33.10923584 -8.5604248 32.15655518 C-8.5654922 30.19961038 -8.56783319 28.24265692 -8.56767273 26.28570557 C-8.56986108 23.28328319 -8.58802385 20.28122703 -8.60697937 17.27886963 C-8.60991289 15.38043339 -8.61189796 13.4819954 -8.61283875 11.58355713 C-8.62002426 10.68145508 -8.62720978 9.77935303 -8.63461304 8.84991455 C-8.63153641 8.01564941 -8.62845978 7.18138428 -8.62528992 6.32183838 C-8.62671494 5.58618652 -8.62813995 4.85053467 -8.62960815 4.09259033 C-7.96884209 -0.77561985 -3.95844014 0.02735703 0 0 Z " fill="#A97705" transform="translate(314.3823699951172,285.72894287109375)"/>
<path d="M0 0 C1.0428717 0.03815323 2.08574341 0.07630646 3.16021729 0.11561584 C4.23837708 0.12456375 5.31653687 0.13351166 6.42736816 0.14273071 C9.8660865 0.18083523 13.30075713 0.27508822 16.73834229 0.36952209 C19.06772384 0.40107895 21.39715593 0.429115 23.72662354 0.45350647 C27.97041352 0.51201722 32.21340073 0.57832568 36.45611572 0.69154358 C37.30929382 0.71345261 38.16247192 0.73536163 39.04150391 0.75793457 C40.98834229 0.93202209 40.98834229 0.93202209 41.98834229 1.93202209 C42.95889498 8.14748079 39.89950352 12.21130765 36.80084229 17.30702209 C35.69278664 19.18440393 34.58741864 21.06337406 33.48443604 22.94374084 C32.61987793 24.4120636 32.61987793 24.4120636 31.737854 25.91004944 C28.836988 30.92078338 26.10150012 36.01859246 23.36334229 41.11952209 C19.29205345 48.67835319 15.19014647 56.216322 11.00738525 63.71400452 C7.33222696 70.30396876 3.68612227 76.90980001 0.04354858 83.51780701 C-4.88188799 92.45287972 -9.80872232 101.38715234 -14.76165771 110.30702209 C-15.33400146 111.33859436 -15.33400146 111.33859436 -15.91790771 112.39100647 C-16.27368896 113.031026 -16.62947021 113.67104553 -16.99603271 114.33045959 C-17.29219482 114.86332581 -17.58835693 115.39619202 -17.89349365 115.94520569 C-19.58426547 118.94946356 -21.30128935 121.93887746 -23.01165771 124.93202209 C-40.17165771 124.93202209 -57.33165771 124.93202209 -75.01165771 124.93202209 C-76.13625579 119.30903174 -76.13625579 119.30903174 -74.04681396 115.83436584 C-73.35337891 114.65354431 -73.35337891 114.65354431 -72.64593506 113.4488678 C-72.12724854 112.59768372 -71.60856201 111.74649963 -71.07415771 110.86952209 C-69.9627374 108.98714823 -68.85210216 107.10431067 -67.74212646 105.22108459 C-67.14061768 104.21078186 -66.53910889 103.20047913 -65.91937256 102.15956116 C-62.86413728 96.99060666 -59.89307335 91.77389301 -56.92019653 86.55732727 C-55.88358881 84.7391393 -54.84495192 82.92212381 -53.80584717 81.10536194 C-49.68143208 73.88998233 -45.60765811 66.64900437 -41.59051514 59.37342834 C-38.02253419 52.92169592 -34.36567801 46.52227956 -30.69793701 40.12684631 C-27.95996452 35.34999551 -25.23649332 30.56560659 -22.53509521 25.76795959 C-21.95735352 24.74210754 -21.37961182 23.71625549 -20.78436279 22.65931702 C-19.67585701 20.68900931 -18.56883029 18.71786845 -17.46356201 16.7457428 C-16.95478516 15.84170715 -16.4460083 14.93767151 -15.92181396 14.00624084 C-15.47974609 13.21822083 -15.03767822 12.43020081 -14.58221436 11.61830139 C-14.06393066 10.73182922 -13.54564697 9.84535706 -13.01165771 8.93202209 C-12.71417633 8.24972031 -12.41669495 7.56741852 -12.11019897 6.86444092 C-9.17383177 0.89900571 -6.51966252 0.01749925 0 0 Z " fill="#A97706" transform="translate(382.01165771484375,141.06797790527344)"/>
<path d="M0 0 C0.95123749 -0.00960754 1.90247498 -0.01921509 2.88253784 -0.02911377 C3.9179068 -0.03336365 4.95327576 -0.03761353 6.02001953 -0.04199219 C7.60533981 -0.0505423 7.60533981 -0.0505423 9.22268677 -0.05926514 C11.46387729 -0.06873167 13.70508184 -0.07525565 15.94628906 -0.07910156 C19.38126844 -0.08880626 22.81564953 -0.1198142 26.25048828 -0.15136719 C28.4236618 -0.1578969 30.59683961 -0.1631475 32.77001953 -0.16699219 C33.80134003 -0.17933899 34.83266052 -0.19168579 35.89523315 -0.20440674 C36.85277496 -0.20140564 37.81031677 -0.19840454 38.796875 -0.1953125 C39.6399118 -0.19895813 40.48294861 -0.20260376 41.35153198 -0.20635986 C44.04446729 0.24837247 44.84836821 1.05128583 46.52783203 3.16113281 C47.73395327 5.08410635 48.88642356 7.04107718 50.00439453 9.01660156 C50.33144882 9.59114075 50.65850311 10.16567993 50.99546814 10.75762939 C52.05306002 12.61843996 53.10343333 14.48319109 54.15283203 16.34863281 C54.87387086 17.62553904 55.59514422 18.90231286 56.31665039 20.17895508 C57.39036203 22.07901188 58.46363142 23.97930371 59.53471375 25.88084412 C61.52468185 29.40899637 63.54754974 32.91383686 65.61767578 36.39550781 C66.25938721 37.48762573 66.25938721 37.48762573 66.9140625 38.60180664 C67.67413206 39.89209493 68.4446283 41.17632285 69.22753906 42.45288086 C71.58889313 46.51113116 71.52293301 47.18562792 70.52783203 52.16113281 C54.02783203 52.16113281 37.52783203 52.16113281 20.52783203 52.16113281 C18.48595703 48.48988281 16.44408203 44.81863281 14.34033203 41.03613281 C10.54371102 34.21043709 6.71979117 27.42163258 2.66845703 20.74316406 C2.06670654 19.74881348 1.46495605 18.75446289 0.8449707 17.72998047 C-0.308183 15.8363503 -1.47180838 13.94905014 -2.64672852 12.06884766 C-3.16533447 11.21629395 -3.68394043 10.36374023 -4.21826172 9.48535156 C-4.90940063 8.37293091 -4.90940063 8.37293091 -5.61450195 7.23803711 C-6.64630377 4.73944957 -6.4464868 3.64376889 -5.47216797 1.16113281 C-3.87799387 -0.43304129 -2.20907666 0.0179258 0 0 Z " fill="#A97706" transform="translate(407.47216796875,213.8388671875)"/>
<path d="M0 0 C9.961875 -0.12375 9.961875 -0.12375 20.125 -0.25 C22.21086426 -0.28641602 24.29672852 -0.32283203 26.44580078 -0.36035156 C28.11229424 -0.37204182 29.77879917 -0.38223285 31.4453125 -0.390625 C32.29988037 -0.41108887 33.15444824 -0.43155273 34.03491211 -0.45263672 C39.53265797 -0.45583215 42.63043349 0.33940573 47 4 C49.34679246 6.98682676 49.41234338 10.21321979 49.328125 13.9609375 C48.79029485 17.30316771 47.15189337 19.46836074 45 22 C44.34 22 43.68 22 43 22 C43 22.66 43 23.32 43 24 C43.763125 24.226875 44.52625 24.45375 45.3125 24.6875 C48.74256596 26.36264849 49.56979878 27.46213383 51 31 C51.75504506 36.605951 51.40269969 41.32128793 48 46 C42.39833313 50.67946842 37.62046596 51.71063435 30.46875 51.48828125 C29.69047852 51.48324585 28.91220703 51.47821045 28.11035156 51.47302246 C25.23985249 51.44712301 22.36988403 51.3773179 19.5 51.3125 C13.065 51.209375 6.63 51.10625 0 51 C0 34.17 0 17.34 0 0 Z " fill="#101421" transform="translate(1047,282)"/>
<path d="M0 0 C8.91 -0.0928125 8.91 -0.0928125 18 -0.1875 C19.85882812 -0.21481201 21.71765625 -0.24212402 23.6328125 -0.27026367 C25.13020176 -0.27903744 26.62759825 -0.28667926 28.125 -0.29296875 C29.26195312 -0.3159906 29.26195312 -0.3159906 30.421875 -0.33947754 C37.23897519 -0.34277189 42.68800162 1.02516805 48 5.5625 C50.67846919 10.16611891 50.7997585 13.79287673 50 19 C48.64997474 22.24006063 47.80043735 23.51973759 44.8125 25.3125 C44.214375 25.539375 43.61625 25.76625 43 26 C43 26.66 43 27.32 43 28 C43.61875 28.268125 44.2375 28.53625 44.875 28.8125 C47 30 47 30 49 33 C49.27207317 35.28317072 49.44840369 37.57850824 49.5625 39.875 C49.77812556 44.02029135 50.06848332 47.95059691 51 52 C49.20906809 52.08086147 47.41710372 52.13912702 45.625 52.1875 C44.12839844 52.23970703 44.12839844 52.23970703 42.6015625 52.29296875 C41.74304688 52.19628906 40.88453125 52.09960938 40 52 C37.66853205 48.50279807 37.65695177 46.6462377 37.4375 42.5 C37.2471007 39.04949834 37.09421622 36.28264866 36 33 C27.75 32.67 19.5 32.34 11 32 C11 38.6 11 45.2 11 52 C7.37 52 3.74 52 0 52 C0 34.84 0 17.68 0 0 Z " fill="#151925" transform="translate(836,281)"/>
<path d="M0 0 C9.961875 -0.12375 9.961875 -0.12375 20.125 -0.25 C22.21086426 -0.28641602 24.29672852 -0.32283203 26.44580078 -0.36035156 C28.11229424 -0.37204182 29.77879917 -0.38223285 31.4453125 -0.390625 C32.29988037 -0.41108887 33.15444824 -0.43155273 34.03491211 -0.45263672 C39.5411767 -0.45583711 42.61689549 0.34989164 47 4 C49.76055304 6.90645964 50.43128699 8.88624618 50.4375 12.875 C50.297721 17.60651926 49.22548151 20.40589203 46 24 C45.01 24.33 44.02 24.66 43 25 C43 25.66 43 26.32 43 27 C43.61875 27.268125 44.2375 27.53625 44.875 27.8125 C47 29 47 29 49 32 C49.27637388 34.50446022 49.46380255 36.92673304 49.5625 39.4375 C49.74363441 43.43401871 50.02224639 47.08898558 51 51 C47.04 51 43.08 51 39 51 C38.86722656 49.87980469 38.73445312 48.75960937 38.59765625 47.60546875 C38.41943431 46.13279271 38.24103989 44.66013753 38.0625 43.1875 C37.93198242 42.08051758 37.93198242 42.08051758 37.79882812 40.95117188 C37.41783454 37.83266879 36.99630626 34.98891878 36 32 C27.75 31.67 19.5 31.34 11 31 C11 37.6 11 44.2 11 51 C7.37 51 3.74 51 0 51 C0 34.17 0 17.34 0 0 Z " fill="#111521" transform="translate(560,282)"/>
<path d="M0 0 C6.47625 -0.061875 12.9525 -0.12375 19.625 -0.1875 C22.67548584 -0.22846802 22.67548584 -0.22846802 25.78759766 -0.27026367 C27.41307991 -0.2790317 29.03856878 -0.28667489 30.6640625 -0.29296875 C31.91352661 -0.3159906 31.91352661 -0.3159906 33.18823242 -0.33947754 C38.21880906 -0.34172534 41.64528006 0.19923447 46 3 C49.35447119 6.79584898 50.66020879 9.84013005 50.39453125 14.9765625 C49.4654593 19.74150579 46.68704381 23.86601277 43 27 C43.928125 27.3403125 43.928125 27.3403125 44.875 27.6875 C47.71274282 29.4402235 47.99277374 30.84315232 49 34 C49.25884973 36.18020855 49.44310626 38.37022775 49.5625 40.5625 C49.77250311 44.26969771 50.09464363 47.37857451 51 51 C47.04 51 43.08 51 39 51 C37.20569648 47.41139296 37.70389968 43.12603851 37.57421875 39.1640625 C37.18304944 36.02036875 37.18304944 36.02036875 35.66015625 33.6328125 C31.31780385 30.96746257 26.74727213 31.31975887 21.75 31.25 C20.71875 31.22035156 19.6875 31.19070312 18.625 31.16015625 C16.08375297 31.08956605 13.54187188 31.04250622 11 31 C11 37.6 11 44.2 11 51 C7.37 51 3.74 51 0 51 C0 34.17 0 17.34 0 0 Z " fill="#111522" transform="translate(667,192)"/>
<path d="M0 0 C2.79794248 2.18969412 4.95712288 4.42567467 6.0546875 7.828125 C6.0546875 9.148125 6.0546875 10.468125 6.0546875 11.828125 C2.34552587 12.11590478 -1.24512542 12.27257584 -4.9453125 11.828125 C-7.3828125 9.453125 -7.3828125 9.453125 -8.9453125 6.828125 C-13.53555988 3.83936393 -18.67567686 4.3370199 -23.9453125 4.828125 C-27.15111958 5.69272682 -27.15111958 5.69272682 -28.9453125 7.828125 C-29.61211618 10.87091872 -29.61211618 10.87091872 -28.9453125 13.828125 C-26.0797595 15.73849367 -25.05289162 16.14344237 -21.8125 16.57421875 C-20.60207031 16.74727539 -20.60207031 16.74727539 -19.3671875 16.92382812 C-17.69280847 17.1485339 -16.01833181 17.37251359 -14.34375 17.59570312 C-6.21556162 18.75962883 1.80017126 19.91338768 7.01953125 26.8046875 C9.23543472 31.13615164 8.86670588 35.27678331 7.421875 39.81640625 C5.01011685 44.88978938 1.20362213 46.95761359 -3.9453125 48.828125 C-12.81623569 51.36267448 -25.52253738 51.6229019 -33.9453125 47.765625 C-38.19690668 45.11119054 -40.07839058 42.45484455 -41.9453125 37.828125 C-42.6953125 34.390625 -42.6953125 34.390625 -42.9453125 31.828125 C-38.9853125 31.828125 -35.0253125 31.828125 -30.9453125 31.828125 C-30.7184375 32.941875 -30.4915625 34.055625 -30.2578125 35.203125 C-29.36562968 38.89861015 -29.36562968 38.89861015 -26.80078125 40.03515625 C-23.42216451 40.97340413 -20.45123036 41.12929121 -16.9453125 41.140625 C-15.1509375 41.16576172 -15.1509375 41.16576172 -13.3203125 41.19140625 C-9.6861631 40.80023045 -7.79441174 40.08939893 -4.9453125 37.828125 C-4.11197917 34.828125 -4.11197917 34.828125 -4.9453125 31.828125 C-9.80077913 27.86428099 -15.73775931 27.80458548 -21.73242188 27.09960938 C-28.58502271 26.17682886 -34.13182876 24.21958618 -39.4453125 19.703125 C-41.68040439 15.41919888 -41.56324478 11.56039118 -40.9453125 6.828125 C-39.1037954 1.64885816 -34.6938739 -0.80215146 -29.9453125 -3.171875 C-20.8500711 -6.20362213 -8.21507797 -4.94884215 0 0 Z " fill="#121622" transform="translate(710.9453125,284.171875)"/>
<path d="M0 0 C2.79794248 2.18969412 4.95712288 4.42567467 6.0546875 7.828125 C6.0546875 9.148125 6.0546875 10.468125 6.0546875 11.828125 C2.34552587 12.11590478 -1.24512542 12.27257584 -4.9453125 11.828125 C-7.3828125 9.453125 -7.3828125 9.453125 -8.9453125 6.828125 C-13.53555988 3.83936393 -18.67567686 4.3370199 -23.9453125 4.828125 C-27.15111958 5.69272682 -27.15111958 5.69272682 -28.9453125 7.828125 C-29.61211618 10.87091872 -29.61211618 10.87091872 -28.9453125 13.828125 C-25.88282939 15.8697804 -24.38253181 16.25430898 -20.83203125 16.79296875 C-19.83107422 16.95345703 -18.83011719 17.11394531 -17.79882812 17.27929688 C-15.70018485 17.60166713 -13.6012281 17.92200367 -11.50195312 18.24023438 C-4.56153805 19.35764565 0.60989892 20.59592674 5.9296875 25.453125 C8.67749875 29.81729581 8.95676481 32.8097726 8.0546875 37.828125 C6.33252569 42.52492995 4.3775899 45.05067725 0.1796875 47.765625 C-9.02695376 51.90174294 -21.81154011 51.3786443 -31.453125 48.94140625 C-36.99675993 46.45090757 -39.6885405 43.42099473 -41.9453125 37.828125 C-42.6953125 34.390625 -42.6953125 34.390625 -42.9453125 31.828125 C-38.9853125 31.828125 -35.0253125 31.828125 -30.9453125 31.828125 C-29.96875 34.46484375 -29.96875 34.46484375 -28.9921875 37.1015625 C-27.57564417 39.43780187 -26.53329726 39.94516549 -23.9453125 40.828125 C-20.60900924 41.18290175 -20.60900924 41.18290175 -17.0078125 41.140625 C-15.80253906 41.15738281 -14.59726563 41.17414063 -13.35546875 41.19140625 C-9.70069911 40.80206653 -7.80760692 40.10410213 -4.9453125 37.828125 C-4.11197917 34.828125 -4.11197917 34.828125 -4.9453125 31.828125 C-9.80077913 27.86428099 -15.73775931 27.80458548 -21.73242188 27.09960938 C-28.58502271 26.17682886 -34.13182876 24.21958618 -39.4453125 19.703125 C-41.68040439 15.41919888 -41.56324478 11.56039118 -40.9453125 6.828125 C-39.1037954 1.64885816 -34.6938739 -0.80215146 -29.9453125 -3.171875 C-20.8500711 -6.20362213 -8.21507797 -4.94884215 0 0 Z " fill="#111522" transform="translate(1202.9453125,284.171875)"/>
<path d="M0 0 C3.35286458 0.03255208 6.70572917 0.06510417 10.05859375 0.09765625 C15.19129024 10.07987298 19.88947527 20.2131879 24.42260742 30.47973633 C25.51536231 32.95378111 26.61378466 35.4252554 27.71289062 37.89648438 C28.41048223 39.4699076 29.1077603 41.04346988 29.8046875 42.6171875 C30.29671913 43.72475151 30.29671913 43.72475151 30.7986908 44.85469055 C33.05859375 49.98177204 33.05859375 49.98177204 33.05859375 51.09765625 C28.76859375 51.09765625 24.47859375 51.09765625 20.05859375 51.09765625 C17.58359375 45.15765625 17.58359375 45.15765625 15.05859375 39.09765625 C7.13859375 38.76765625 -0.78140625 38.43765625 -8.94140625 38.09765625 C-9.93140625 41.06765625 -10.92140625 44.03765625 -11.94140625 47.09765625 C-12.60140625 48.41765625 -13.26140625 49.73765625 -13.94140625 51.09765625 C-17.90140625 51.09765625 -21.86140625 51.09765625 -25.94140625 51.09765625 C-21.01640448 39.45327223 -15.98381009 27.85970522 -10.82260132 16.31820679 C-10.23445388 15.00297671 -9.64707346 13.68740337 -9.06045532 12.37149048 C-8.23161789 10.51346468 -7.39909293 8.65708517 -6.56640625 6.80078125 C-6.08429688 5.72473633 -5.6021875 4.64869141 -5.10546875 3.54003906 C-3.47321202 0.11531248 -3.47321202 0.11531248 0 0 Z " fill="#101421" transform="translate(1126.94140625,281.90234375)"/>
<path d="M0 0 C4.62 0 9.24 0 14 0 C19.95705761 13.35731989 25.90396629 26.7186256 31.75 40.125 C32.17974121 41.10734619 32.60948242 42.08969238 33.05224609 43.10180664 C33.44234863 43.99891357 33.83245117 44.89602051 34.234375 45.8203125 C34.57694336 46.60680176 34.91951172 47.39329102 35.27246094 48.20361328 C36 50 36 50 36 51 C32.04 51 28.08 51 24 51 C19 40.25 19 40.25 19 38 C10.75 38 2.5 38 -6 38 C-6.99 40.97 -7.98 43.94 -9 47 C-9.66 48.32 -10.32 49.64 -11 51 C-14.63 51 -18.26 51 -22 51 C-21.28066974 47.40334868 -20.72905303 45.05246278 -19.28173828 41.85571289 C-18.93112335 41.07462662 -18.58050842 40.29354034 -18.2192688 39.48878479 C-17.84011322 38.65846237 -17.46095764 37.82813995 -17.0703125 36.97265625 C-16.67931366 36.10611923 -16.28831482 35.23958221 -15.88546753 34.3467865 C-14.63682847 31.58313349 -13.38087399 28.82287155 -12.125 26.0625 C-11.28731004 24.20918788 -10.45006562 22.3556743 -9.61328125 20.50195312 C-8.80768876 18.72117447 -8.00171178 16.9405697 -7.1953125 15.16015625 C-6.63265182 13.91770897 -6.63265182 13.91770897 -6.05862427 12.65016174 C-5.52324539 11.47380409 -5.52324539 11.47380409 -4.97705078 10.27368164 C-4.66696075 9.59149063 -4.35687073 8.90929962 -4.03738403 8.20643616 C-2.74025721 5.44754704 -1.36337868 2.72675736 0 0 Z " fill="#101421" transform="translate(577,192)"/>
<path d="M0 0 C1.79244141 0.01740234 1.79244141 0.01740234 3.62109375 0.03515625 C5.41740234 0.04869141 5.41740234 0.04869141 7.25 0.0625 C8.17683594 0.07410156 9.10367188 0.08570313 10.05859375 0.09765625 C14.98755883 9.57426246 19.5114293 19.1926779 23.80859375 28.97265625 C24.26790283 30.01736084 24.72721191 31.06206543 25.20043945 32.13842773 C27.93912681 38.41415048 30.54798345 44.72727591 33.05859375 51.09765625 C28.76859375 51.09765625 24.47859375 51.09765625 20.05859375 51.09765625 C16.05859375 41.47265625 16.05859375 41.47265625 16.05859375 38.09765625 C7.80859375 38.09765625 -0.44140625 38.09765625 -8.94140625 38.09765625 C-9.93140625 41.06765625 -10.92140625 44.03765625 -11.94140625 47.09765625 C-12.60140625 48.41765625 -13.26140625 49.73765625 -13.94140625 51.09765625 C-17.90140625 51.09765625 -21.86140625 51.09765625 -25.94140625 51.09765625 C-21.01640448 39.45327223 -15.98381009 27.85970522 -10.82260132 16.31820679 C-10.23445388 15.00297671 -9.64707346 13.68740337 -9.06045532 12.37149048 C-8.23161789 10.51346468 -7.39909293 8.65708517 -6.56640625 6.80078125 C-6.08429687 5.72473633 -5.6021875 4.64869141 -5.10546875 3.54003906 C-3.47321202 0.11531248 -3.47321202 0.11531248 0 0 Z " fill="#101421" transform="translate(798.94140625,281.90234375)"/>
<path d="M0 0 C4.62 0 9.24 0 14 0 C16.65677644 5.81401631 19.30751947 11.63073214 21.95288086 17.44995117 C22.85229748 19.42627747 23.75331429 21.40187638 24.65600586 23.37670898 C25.95855596 26.22707124 27.25519292 29.08006158 28.55078125 31.93359375 C29.15095818 33.24196449 29.15095818 33.24196449 29.76325989 34.57676697 C32.20265348 39.96796284 34.21836007 45.35606371 36 51 C32.04 51 28.08 51 24 51 C19 40.25 19 40.25 19 38 C11.08 38.33 3.16 38.66 -5 39 C-6.98 42.96 -8.96 46.92 -11 51 C-14.63 51 -18.26 51 -22 51 C-19.92190033 44.41692901 -17.42743177 38.20462021 -14.55078125 31.93359375 C-14.13330124 31.01409439 -13.71582123 30.09459503 -13.28569031 29.14723206 C-11.96549738 26.24205332 -10.63911286 23.33975189 -9.3125 20.4375 C-8.41039474 18.45526583 -7.50869803 16.47284566 -6.60742188 14.49023438 C-4.40966403 9.65799384 -2.20635288 4.82832181 0 0 Z " fill="#101421" transform="translate(826,192)"/>
<path d="M0 0 C11.55 0 23.1 0 35 0 C35 1.98 35 3.96 35 6 C39.62 6 44.24 6 49 6 C49 4.02 49 2.04 49 0 C61.21 0 73.42 0 86 0 C86 1.98 86 3.96 86 6 C90.62 6 95.24 6 100 6 C100 4.02 100 2.04 100 0 C103.63 0 107.26 0 111 0 C111 4.95 111 9.9 111 15 C100.77 15 90.54 15 80 15 C80 13.35 80 11.7 80 10 C77.36 10.33 74.72 10.66 72 11 C71.67 12.32 71.34 13.64 71 15 C57.14 15 43.28 15 29 15 C29 13.35 29 11.7 29 10 C26.36 10.33 23.72 10.66 21 11 C20.67 12.32 20.34 13.64 20 15 C13.4 15 6.8 15 0 15 C0 10.05 0 5.1 0 0 Z " fill="#AA7807" transform="translate(1263,468)"/>
<path d="M0 0 C11.55 0 23.1 0 35 0 C35 1.98 35 3.96 35 6 C39.62 6 44.24 6 49 6 C49 4.02 49 2.04 49 0 C61.21 0 73.42 0 86 0 C86 1.98 86 3.96 86 6 C90.62 6 95.24 6 100 6 C100 4.02 100 2.04 100 0 C103.63 0 107.26 0 111 0 C111 4.95 111 9.9 111 15 C100.77 15 90.54 15 80 15 C80 13.35 80 11.7 80 10 C77.36 10.33 74.72 10.66 72 11 C71.67 12.32 71.34 13.64 71 15 C57.14 15 43.28 15 29 15 C29 13.35 29 11.7 29 10 C26.36 10.33 23.72 10.66 21 11 C20.67 12.32 20.34 13.64 20 15 C13.4 15 6.8 15 0 15 C0 10.05 0 5.1 0 0 Z " fill="#AA7807" transform="translate(1044,468)"/>
<path d="M0 0 C11.55 0 23.1 0 35 0 C35 1.98 35 3.96 35 6 C39.62 6 44.24 6 49 6 C49 4.02 49 2.04 49 0 C61.21 0 73.42 0 86 0 C86 1.98 86 3.96 86 6 C90.62 6 95.24 6 100 6 C100 4.02 100 2.04 100 0 C103.63 0 107.26 0 111 0 C111 4.95 111 9.9 111 15 C100.77 15 90.54 15 80 15 C80 13.35 80 11.7 80 10 C77.36 10.33 74.72 10.66 72 11 C71.67 12.32 71.34 13.64 71 15 C57.14 15 43.28 15 29 15 C29 13.35 29 11.7 29 10 C26.36 10.33 23.72 10.66 21 11 C20.67 12.32 20.34 13.64 20 15 C13.4 15 6.8 15 0 15 C0 10.05 0 5.1 0 0 Z " fill="#AA7807" transform="translate(825,468)"/>
<path d="M0 0 C11.55 0 23.1 0 35 0 C35 1.98 35 3.96 35 6 C39.62 6 44.24 6 49 6 C49 4.02 49 2.04 49 0 C61.21 0 73.42 0 86 0 C86 1.98 86 3.96 86 6 C90.62 6 95.24 6 100 6 C100 4.02 100 2.04 100 0 C103.63 0 107.26 0 111 0 C111 4.95 111 9.9 111 15 C100.77 15 90.54 15 80 15 C80 13.35 80 11.7 80 10 C77.36 10.33 74.72 10.66 72 11 C71.67 12.32 71.34 13.64 71 15 C57.14 15 43.28 15 29 15 C29 13.35 29 11.7 29 10 C26.36 10.33 23.72 10.66 21 11 C20.67 12.32 20.34 13.64 20 15 C13.4 15 6.8 15 0 15 C0 10.05 0 5.1 0 0 Z " fill="#AA7807" transform="translate(606,468)"/>
<path d="M0 0 C11.55 0 23.1 0 35 0 C35 1.98 35 3.96 35 6 C39.62 6 44.24 6 49 6 C49 4.02 49 2.04 49 0 C61.21 0 73.42 0 86 0 C86 1.98 86 3.96 86 6 C90.62 6 95.24 6 100 6 C100 4.02 100 2.04 100 0 C103.63 0 107.26 0 111 0 C111 4.95 111 9.9 111 15 C100.77 15 90.54 15 80 15 C80 13.35 80 11.7 80 10 C77.36 10.33 74.72 10.66 72 11 C71.67 12.32 71.34 13.64 71 15 C57.14 15 43.28 15 29 15 C29 13.35 29 11.7 29 10 C26.36 10.33 23.72 10.66 21 11 C20.67 12.32 20.34 13.64 20 15 C13.4 15 6.8 15 0 15 C0 10.05 0 5.1 0 0 Z " fill="#AA7807" transform="translate(387,468)"/>
<path d="M0 0 C11.55 0 23.1 0 35 0 C35 1.98 35 3.96 35 6 C39.62 6 44.24 6 49 6 C49 4.02 49 2.04 49 0 C61.21 0 73.42 0 86 0 C86 1.98 86 3.96 86 6 C90.62 6 95.24 6 100 6 C100 4.02 100 2.04 100 0 C103.63 0 107.26 0 111 0 C111 4.95 111 9.9 111 15 C100.77 15 90.54 15 80 15 C80 13.35 80 11.7 80 10 C77.36 10.33 74.72 10.66 72 11 C71.67 12.32 71.34 13.64 71 15 C57.14 15 43.28 15 29 15 C29 13.35 29 11.7 29 10 C26.36 10.33 23.72 10.66 21 11 C20.67 12.32 20.34 13.64 20 15 C13.4 15 6.8 15 0 15 C0 10.05 0 5.1 0 0 Z " fill="#AA7807" transform="translate(168,468)"/>
<path d="M0 0 C11.55 0 23.1 0 35 0 C35 1.98 35 3.96 35 6 C39.62 6 44.24 6 49 6 C49 4.02 49 2.04 49 0 C61.21 0 73.42 0 86 0 C86 1.98 86 3.96 86 6 C90.62 6 95.24 6 100 6 C100 4.02 100 2.04 100 0 C103.63 0 107.26 0 111 0 C111 4.95 111 9.9 111 15 C100.77 15 90.54 15 80 15 C80 13.35 80 11.7 80 10 C77.36 10.33 74.72 10.66 72 11 C71.67 12.32 71.34 13.64 71 15 C57.14 15 43.28 15 29 15 C29 13.35 29 11.7 29 10 C26.36 10.33 23.72 10.66 21 11 C20.67 12.32 20.34 13.64 20 15 C13.4 15 6.8 15 0 15 C0 10.05 0 5.1 0 0 Z " fill="#AA7807" transform="translate(1263,435)"/>
<path d="M0 0 C11.55 0 23.1 0 35 0 C35 1.98 35 3.96 35 6 C39.62 6 44.24 6 49 6 C49 4.02 49 2.04 49 0 C61.21 0 73.42 0 86 0 C86 1.98 86 3.96 86 6 C90.62 6 95.24 6 100 6 C100 4.02 100 2.04 100 0 C103.63 0 107.26 0 111 0 C111 4.95 111 9.9 111 15 C100.77 15 90.54 15 80 15 C80 13.35 80 11.7 80 10 C77.36 10.33 74.72 10.66 72 11 C71.67 12.32 71.34 13.64 71 15 C57.14 15 43.28 15 29 15 C29 13.35 29 11.7 29 10 C26.36 10.33 23.72 10.66 21 11 C20.67 12.32 20.34 13.64 20 15 C13.4 15 6.8 15 0 15 C0 10.05 0 5.1 0 0 Z " fill="#AA7807" transform="translate(1044,435)"/>
<path d="M0 0 C11.55 0 23.1 0 35 0 C35 1.98 35 3.96 35 6 C39.62 6 44.24 6 49 6 C49 4.02 49 2.04 49 0 C61.21 0 73.42 0 86 0 C86 1.98 86 3.96 86 6 C90.62 6 95.24 6 100 6 C100 4.02 100 2.04 100 0 C103.63 0 107.26 0 111 0 C111 4.95 111 9.9 111 15 C100.77 15 90.54 15 80 15 C80 13.35 80 11.7 80 10 C77.36 10.33 74.72 10.66 72 11 C71.67 12.32 71.34 13.64 71 15 C57.14 15 43.28 15 29 15 C29 13.35 29 11.7 29 10 C26.36 10.33 23.72 10.66 21 11 C20.67 12.32 20.34 13.64 20 15 C13.4 15 6.8 15 0 15 C0 10.05 0 5.1 0 0 Z " fill="#AA7807" transform="translate(825,435)"/>
<path d="M0 0 C11.55 0 23.1 0 35 0 C35 1.98 35 3.96 35 6 C39.62 6 44.24 6 49 6 C49 4.02 49 2.04 49 0 C61.21 0 73.42 0 86 0 C86 1.98 86 3.96 86 6 C90.62 6 95.24 6 100 6 C100 4.02 100 2.04 100 0 C103.63 0 107.26 0 111 0 C111 4.95 111 9.9 111 15 C100.77 15 90.54 15 80 15 C80 13.35 80 11.7 80 10 C77.36 10.33 74.72 10.66 72 11 C71.67 12.32 71.34 13.64 71 15 C57.14 15 43.28 15 29 15 C29 13.35 29 11.7 29 10 C26.36 10.33 23.72 10.66 21 11 C20.67 12.32 20.34 13.64 20 15 C13.4 15 6.8 15 0 15 C0 10.05 0 5.1 0 0 Z " fill="#AA7807" transform="translate(606,435)"/>
<path d="M0 0 C11.55 0 23.1 0 35 0 C35 1.98 35 3.96 35 6 C39.62 6 44.24 6 49 6 C49 4.02 49 2.04 49 0 C61.21 0 73.42 0 86 0 C86 1.98 86 3.96 86 6 C90.62 6 95.24 6 100 6 C100 4.02 100 2.04 100 0 C103.63 0 107.26 0 111 0 C111 4.95 111 9.9 111 15 C100.77 15 90.54 15 80 15 C80 13.35 80 11.7 80 10 C77.36 10.33 74.72 10.66 72 11 C71.67 12.32 71.34 13.64 71 15 C57.14 15 43.28 15 29 15 C29 13.35 29 11.7 29 10 C26.36 10.33 23.72 10.66 21 11 C20.67 12.32 20.34 13.64 20 15 C13.4 15 6.8 15 0 15 C0 10.05 0 5.1 0 0 Z " fill="#AA7807" transform="translate(387,435)"/>
<path d="M0 0 C11.55 0 23.1 0 35 0 C35 1.98 35 3.96 35 6 C39.62 6 44.24 6 49 6 C49 4.02 49 2.04 49 0 C61.21 0 73.42 0 86 0 C86 1.98 86 3.96 86 6 C90.62 6 95.24 6 100 6 C100 4.02 100 2.04 100 0 C103.63 0 107.26 0 111 0 C111 4.95 111 9.9 111 15 C100.77 15 90.54 15 80 15 C80 13.35 80 11.7 80 10 C77.36 10.33 74.72 10.66 72 11 C71.67 12.32 71.34 13.64 71 15 C57.14 15 43.28 15 29 15 C29 13.35 29 11.7 29 10 C26.36 10.33 23.72 10.66 21 11 C20.67 12.32 20.34 13.64 20 15 C13.4 15 6.8 15 0 15 C0 10.05 0 5.1 0 0 Z " fill="#AA7807" transform="translate(168,435)"/>
<path d="M0 0 C4.4103372 3.48458246 6.79651466 6.99032572 7.875 12.5625 C7.9575 13.59375 8.04 14.625 8.125 15.6875 C4.165 15.6875 0.205 15.6875 -3.875 15.6875 C-4.308125 14.594375 -4.74125 13.50125 -5.1875 12.375 C-6.83604101 8.57185423 -8.31018531 6.58845391 -11.9375 4.5 C-17.07076493 3.08016077 -22.15395221 2.62015297 -27.1953125 4.59765625 C-31.8104325 7.24581551 -33.87500097 9.64558628 -35.875 14.6875 C-36.38341308 18.36627287 -36.38341308 18.36627287 -36.3125 22.1875 C-36.33183594 23.4559375 -36.35117187 24.724375 -36.37109375 26.03125 C-35.64432114 31.38762138 -33.22466408 34.40531913 -29.375 38.0625 C-23.69342827 40.70037259 -17.68387815 40.75665878 -11.6484375 39.0625 C-7.92860805 37.28964511 -6.36708868 35.13606887 -4.9375 31.4375 C-4.586875 30.2 -4.23625 28.9625 -3.875 27.6875 C0.085 27.6875 4.045 27.6875 8.125 27.6875 C7.62246003 34.38803299 4.46085528 39.21816728 -0.0625 44 C-9.01809401 49.37335641 -19.67090834 50.01558687 -29.875 48.6875 C-36.72117041 46.7499046 -42.23588897 42.84876719 -45.875 36.6875 C-49.63529118 28.32335421 -50.35090949 19.22686421 -47.4375 10.5 C-44.3119171 3.58849979 -38.67249209 -1.52205654 -31.625 -4.3125 C-21.0629516 -7.15116571 -9.21646295 -6.05318541 0 0 Z " fill="#131724" transform="translate(940.875,285.3125)"/>
<path d="M0 0 C14.85 0 29.7 0 45 0 C45 2.64 45 5.28 45 8 C33.45 8 21.9 8 10 8 C10 12.29 10 16.58 10 21 C20.89 21 31.78 21 43 21 C43 23.64 43 26.28 43 29 C32.11 29 21.22 29 10 29 C10 33.62 10 38.24 10 43 C21.55 43 33.1 43 45 43 C45 45.64 45 48.28 45 51 C30.15 51 15.3 51 0 51 C0 34.17 0 17.34 0 0 Z " fill="#101421" transform="translate(1218,282)"/>
<path d="M0 0 C14.85 0 29.7 0 45 0 C45 2.64 45 5.28 45 8 C33.45 8 21.9 8 10 8 C10 12.29 10 16.58 10 21 C20.89 21 31.78 21 43 21 C43 23.64 43 26.28 43 29 C32.11 29 21.22 29 10 29 C10 33.62 10 38.24 10 43 C21.55 43 33.1 43 45 43 C45 45.64 45 48.28 45 51 C30.15 51 15.3 51 0 51 C0 34.17 0 17.34 0 0 Z " fill="#101421" transform="translate(726,282)"/>
<path d="M0 0 C5.27905452 3.72494034 9.86662264 7.74209307 12 14 C12 15.32 12 16.64 12 18 C8.04 18 4.08 18 0 18 C-0.37125 16.9275 -0.7425 15.855 -1.125 14.75 C-2.83204521 10.73437935 -5.15004767 9.08539084 -9 7 C-14.2064736 5.2645088 -19.14934089 5.33655617 -24.3125 7.1875 C-28.90894771 10.28742985 -31.21619955 13.82318338 -33 19 C-33.98342382 25.83220763 -33.23142094 31.35113766 -29.46484375 37.18359375 C-27.15269293 40.05066076 -25.58449029 41.02241174 -22 42 C-15.71465559 42.59654576 -9.09386123 43.20243552 -4 39 C-2.3379635 36.05223716 -1.20097544 33.18720406 0 30 C3.96 30 7.92 30 12 30 C11.68578809 36.12713223 9.08693194 40.58233369 5 45 C-3.46375566 51.64330099 -12.71788526 51.98916488 -23.02270508 51.25488281 C-29.8560016 50.37403807 -34.89064416 47.10935584 -39.6875 42.3125 C-45.34264233 34.97905737 -46.13362342 25.97088534 -45 17 C-42.53904206 8.80820019 -37.41497148 3.28891977 -30.19921875 -1.09375 C-21.38093494 -5.1724423 -8.57983026 -4.34769177 0 0 Z " fill="#121623" transform="translate(789,193)"/>
<path d="M0 0 C3.3 0 6.6 0 10 0 C10 6.6 10 13.2 10 20 C20.89 20 31.78 20 43 20 C43 13.4 43 6.8 43 0 C46.3 0 49.6 0 53 0 C53 16.83 53 33.66 53 51 C49.37 51 45.74 51 42 51 C42 43.41 42 35.82 42 28 C31.44 28 20.88 28 10 28 C10 35.59 10 43.18 10 51 C6.7 51 3.4 51 0 51 C0 34.17 0 17.34 0 0 Z " fill="#0E121F" transform="translate(958,282)"/>
<path d="M0 0 C14.52 0 29.04 0 44 0 C44 2.31 44 4.62 44 7 C32.78 7 21.56 7 10 7 C10 11.62 10 16.24 10 21 C20.89 21 31.78 21 43 21 C43 23.64 43 26.28 43 29 C32.44 29 21.88 29 11 29 C11 33.62 11 38.24 11 43 C22.22 43 33.44 43 45 43 C45 45.64 45 48.28 45 51 C30.15 51 15.3 51 0 51 C0 34.17 0 17.34 0 0 Z " fill="#0D111E" transform="translate(619,282)"/>
<path d="M0 0 C2.64 0 5.28 0 8 0 C8 1.65 8 3.3 8 5 C18.23 5 28.46 5 39 5 C40.98 8.63 42.96 12.26 45 16 C45.99 17.65 46.98 19.3 48 21 C48 21.66 48 22.32 48 23 C25.23 23 2.46 23 -21 23 C-21 17.06 -21 11.12 -21 5 C-14.4 5 -7.8 5 -1 5 C-0.67 3.35 -0.34 1.7 0 0 Z " fill="#FEFEFD" transform="translate(21,478)"/>
<path d="M0 0 C5.94 0 11.88 0 18 0 C19.299375 2.2275 20.59875 4.455 21.9375 6.75 C22.34605225 7.44448242 22.75460449 8.13896484 23.17553711 8.85449219 C24.96957466 11.96278219 26.12189249 14.48756995 27 18 C36.9 18 46.8 18 57 18 C57 19.98 57 21.96 57 24 C61.29 24 65.58 24 70 24 C70 22.02 70 20.04 70 18 C73.63 18 77.26 18 81 18 C81 22.95 81 27.9 81 33 C71.43 33 61.86 33 52 33 C51.505 31.02 51.505 31.02 51 29 C48.69 29 46.38 29 44 29 C43.67 30.32 43.34 31.64 43 33 C36.73 33 30.46 33 24 33 C24 28.05 24 23.1 24 18 C19.05 18 14.1 18 9 18 C7.68144905 15.75335738 6.37006028 13.50302694 5.0625 11.25 C4.68931641 10.61578125 4.31613281 9.9815625 3.93164062 9.328125 C2.10200459 6.16334916 0.89458638 3.57834553 0 0 Z " fill="#AA7808" transform="translate(1374,450)"/>
<path d="M0 0 C5.94 0 11.88 0 18 0 C19.299375 2.2275 20.59875 4.455 21.9375 6.75 C22.34605225 7.44448242 22.75460449 8.13896484 23.17553711 8.85449219 C24.96957466 11.96278219 26.12189249 14.48756995 27 18 C36.9 18 46.8 18 57 18 C57 19.98 57 21.96 57 24 C61.29 24 65.58 24 70 24 C70 22.02 70 20.04 70 18 C73.63 18 77.26 18 81 18 C81 22.95 81 27.9 81 33 C71.43 33 61.86 33 52 33 C51.505 31.02 51.505 31.02 51 29 C48.69 29 46.38 29 44 29 C43.67 30.32 43.34 31.64 43 33 C36.73 33 30.46 33 24 33 C24 28.05 24 23.1 24 18 C19.05 18 14.1 18 9 18 C7.68144905 15.75335738 6.37006028 13.50302694 5.0625 11.25 C4.68931641 10.61578125 4.31613281 9.9815625 3.93164062 9.328125 C2.10200459 6.16334916 0.89458638 3.57834553 0 0 Z " fill="#AA7808" transform="translate(1155,450)"/>
<path d="M0 0 C5.94 0 11.88 0 18 0 C19.299375 2.2275 20.59875 4.455 21.9375 6.75 C22.34605225 7.44448242 22.75460449 8.13896484 23.17553711 8.85449219 C24.96957466 11.96278219 26.12189249 14.48756995 27 18 C36.9 18 46.8 18 57 18 C57 19.98 57 21.96 57 24 C61.29 24 65.58 24 70 24 C70 22.02 70 20.04 70 18 C73.63 18 77.26 18 81 18 C81 22.95 81 27.9 81 33 C71.43 33 61.86 33 52 33 C51.505 31.02 51.505 31.02 51 29 C48.69 29 46.38 29 44 29 C43.67 30.32 43.34 31.64 43 33 C36.73 33 30.46 33 24 33 C24 28.05 24 23.1 24 18 C19.05 18 14.1 18 9 18 C7.68144905 15.75335738 6.37006028 13.50302694 5.0625 11.25 C4.68931641 10.61578125 4.31613281 9.9815625 3.93164062 9.328125 C2.10200459 6.16334916 0.89458638 3.57834553 0 0 Z " fill="#AA7808" transform="translate(936,450)"/>
<path d="M0 0 C5.94 0 11.88 0 18 0 C19.299375 2.2275 20.59875 4.455 21.9375 6.75 C22.34605225 7.44448242 22.75460449 8.13896484 23.17553711 8.85449219 C24.96957466 11.96278219 26.12189249 14.48756995 27 18 C36.9 18 46.8 18 57 18 C57 19.98 57 21.96 57 24 C61.29 24 65.58 24 70 24 C70 22.02 70 20.04 70 18 C73.63 18 77.26 18 81 18 C81 22.95 81 27.9 81 33 C71.43 33 61.86 33 52 33 C51.505 31.02 51.505 31.02 51 29 C48.69 29 46.38 29 44 29 C43.67 30.32 43.34 31.64 43 33 C36.73 33 30.46 33 24 33 C24 28.05 24 23.1 24 18 C19.05 18 14.1 18 9 18 C7.68144905 15.75335738 6.37006028 13.50302694 5.0625 11.25 C4.68931641 10.61578125 4.31613281 9.9815625 3.93164062 9.328125 C2.10200459 6.16334916 0.89458638 3.57834553 0 0 Z " fill="#AA7808" transform="translate(717,450)"/>
<path d="M0 0 C5.94 0 11.88 0 18 0 C19.299375 2.2275 20.59875 4.455 21.9375 6.75 C22.34605225 7.44448242 22.75460449 8.13896484 23.17553711 8.85449219 C24.96957466 11.96278219 26.12189249 14.48756995 27 18 C36.9 18 46.8 18 57 18 C57 19.98 57 21.96 57 24 C61.29 24 65.58 24 70 24 C70 22.02 70 20.04 70 18 C73.63 18 77.26 18 81 18 C81 22.95 81 27.9 81 33 C71.43 33 61.86 33 52 33 C51.505 31.02 51.505 31.02 51 29 C48.69 29 46.38 29 44 29 C43.67 30.32 43.34 31.64 43 33 C36.73 33 30.46 33 24 33 C24 28.05 24 23.1 24 18 C19.05 18 14.1 18 9 18 C7.68144905 15.75335738 6.37006028 13.50302694 5.0625 11.25 C4.68931641 10.61578125 4.31613281 9.9815625 3.93164062 9.328125 C2.10200459 6.16334916 0.89458638 3.57834553 0 0 Z " fill="#AA7808" transform="translate(498,450)"/>
<path d="M0 0 C5.94 0 11.88 0 18 0 C19.299375 2.2275 20.59875 4.455 21.9375 6.75 C22.34605225 7.44448242 22.75460449 8.13896484 23.17553711 8.85449219 C24.96957466 11.96278219 26.12189249 14.48756995 27 18 C36.9 18 46.8 18 57 18 C57 19.98 57 21.96 57 24 C61.29 24 65.58 24 70 24 C70 22.02 70 20.04 70 18 C73.63 18 77.26 18 81 18 C81 22.95 81 27.9 81 33 C71.43 33 61.86 33 52 33 C51.505 31.02 51.505 31.02 51 29 C48.69 29 46.38 29 44 29 C43.67 30.32 43.34 31.64 43 33 C36.73 33 30.46 33 24 33 C24 28.05 24 23.1 24 18 C19.05 18 14.1 18 9 18 C7.68144905 15.75335738 6.37006028 13.50302694 5.0625 11.25 C4.68931641 10.61578125 4.31613281 9.9815625 3.93164062 9.328125 C2.10200459 6.16334916 0.89458638 3.57834553 0 0 Z " fill="#AA7808" transform="translate(279,450)"/>
<path d="M0 0 C5.94 0 11.88 0 18 0 C19.299375 2.2275 20.59875 4.455 21.9375 6.75 C22.34605225 7.44448242 22.75460449 8.13896484 23.17553711 8.85449219 C24.96957466 11.96278219 26.12189249 14.48756995 27 18 C36.9 18 46.8 18 57 18 C57 19.98 57 21.96 57 24 C61.29 24 65.58 24 70 24 C70 22.02 70 20.04 70 18 C73.63 18 77.26 18 81 18 C81 22.95 81 27.9 81 33 C71.43 33 61.86 33 52 33 C51.505 31.02 51.505 31.02 51 29 C48.69 29 46.38 29 44 29 C43.67 30.32 43.34 31.64 43 33 C36.73 33 30.46 33 24 33 C24 28.05 24 23.1 24 18 C19.05 18 14.1 18 9 18 C7.68144905 15.75335738 6.37006028 13.50302694 5.0625 11.25 C4.68931641 10.61578125 4.31613281 9.9815625 3.93164062 9.328125 C2.10200459 6.16334916 0.89458638 3.57834553 0 0 Z " fill="#AA7808" transform="translate(60,450)"/>
<path d="M0 0 C13.86 0 27.72 0 42 0 C42 2.31 42 4.62 42 7 C31.44 7 20.88 7 10 7 C10 11.62 10 16.24 10 21 C19.9 21 29.8 21 40 21 C40 23.31 40 25.62 40 28 C30.1 28 20.2 28 10 28 C10 35.59 10 43.18 10 51 C6.7 51 3.4 51 0 51 C0 34.17 0 17.34 0 0 Z " fill="#0B0F1C" transform="translate(618,192)"/>
<path d="M0 0 C11.55 0 23.1 0 35 0 C35 1.98 35 3.96 35 6 C39.62 6 44.24 6 49 6 C49 4.02 49 2.04 49 0 C52.63 0 56.26 0 60 0 C60 4.95 60 9.9 60 15 C49.77 15 39.54 15 29 15 C29 13.35 29 11.7 29 10 C26.36 10.33 23.72 10.66 21 11 C20.67 12.32 20.34 13.64 20 15 C13.4 15 6.8 15 0 15 C0 10.05 0 5.1 0 0 Z " fill="#A97807" transform="translate(0,468)"/>
<path d="M0 0 C11.55 0 23.1 0 35 0 C35 1.98 35 3.96 35 6 C39.62 6 44.24 6 49 6 C49 4.02 49 2.04 49 0 C52.63 0 56.26 0 60 0 C60 4.95 60 9.9 60 15 C49.77 15 39.54 15 29 15 C29 13.35 29 11.7 29 10 C26.36 10.33 23.72 10.66 21 11 C20.67 12.32 20.34 13.64 20 15 C13.4 15 6.8 15 0 15 C0 10.05 0 5.1 0 0 Z " fill="#A97807" transform="translate(0,435)"/>
<path d="M0 0 C10.89 0 21.78 0 33 0 C33 1.98 33 3.96 33 6 C37.29 6 41.58 6 46 6 C46 4.02 46 2.04 46 0 C49.63 0 53.26 0 57 0 C57 4.95 57 9.9 57 15 C47.43 15 37.86 15 28 15 C27.67 13.68 27.34 12.36 27 11 C24.69 11 22.38 11 20 11 C19.67 12.32 19.34 13.64 19 15 C12.73 15 6.46 15 0 15 C0 10.05 0 5.1 0 0 Z " fill="#A97807" transform="translate(1398,435)"/>
<path d="M0 0 C10.89 0 21.78 0 33 0 C33 1.98 33 3.96 33 6 C37.29 6 41.58 6 46 6 C46 4.02 46 2.04 46 0 C49.63 0 53.26 0 57 0 C57 4.95 57 9.9 57 15 C47.43 15 37.86 15 28 15 C27.67 13.68 27.34 12.36 27 11 C24.69 11 22.38 11 20 11 C19.67 12.32 19.34 13.64 19 15 C12.73 15 6.46 15 0 15 C0 10.05 0 5.1 0 0 Z " fill="#A97807" transform="translate(1179,435)"/>
<path d="M0 0 C10.89 0 21.78 0 33 0 C33 1.98 33 3.96 33 6 C37.29 6 41.58 6 46 6 C46 4.02 46 2.04 46 0 C49.63 0 53.26 0 57 0 C57 4.95 57 9.9 57 15 C47.43 15 37.86 15 28 15 C27.67 13.68 27.34 12.36 27 11 C24.69 11 22.38 11 20 11 C19.67 12.32 19.34 13.64 19 15 C12.73 15 6.46 15 0 15 C0 10.05 0 5.1 0 0 Z " fill="#A97807" transform="translate(960,435)"/>
<path d="M0 0 C10.89 0 21.78 0 33 0 C33 1.98 33 3.96 33 6 C37.29 6 41.58 6 46 6 C46 4.02 46 2.04 46 0 C49.63 0 53.26 0 57 0 C57 4.95 57 9.9 57 15 C47.43 15 37.86 15 28 15 C27.67 13.68 27.34 12.36 27 11 C24.69 11 22.38 11 20 11 C19.67 12.32 19.34 13.64 19 15 C12.73 15 6.46 15 0 15 C0 10.05 0 5.1 0 0 Z " fill="#A97807" transform="translate(741,435)"/>
<path d="M0 0 C10.89 0 21.78 0 33 0 C33 1.98 33 3.96 33 6 C37.29 6 41.58 6 46 6 C46 4.02 46 2.04 46 0 C49.63 0 53.26 0 57 0 C57 4.95 57 9.9 57 15 C47.43 15 37.86 15 28 15 C27.67 13.68 27.34 12.36 27 11 C24.69 11 22.38 11 20 11 C19.67 12.32 19.34 13.64 19 15 C12.73 15 6.46 15 0 15 C0 10.05 0 5.1 0 0 Z " fill="#A97807" transform="translate(522,435)"/>
<path d="M0 0 C10.89 0 21.78 0 33 0 C33 1.98 33 3.96 33 6 C37.29 6 41.58 6 46 6 C46 4.02 46 2.04 46 0 C49.63 0 53.26 0 57 0 C57 4.95 57 9.9 57 15 C47.43 15 37.86 15 28 15 C27.67 13.68 27.34 12.36 27 11 C24.69 11 22.38 11 20 11 C19.67 12.32 19.34 13.64 19 15 C12.73 15 6.46 15 0 15 C0 10.05 0 5.1 0 0 Z " fill="#A97807" transform="translate(303,435)"/>
<path d="M0 0 C10.89 0 21.78 0 33 0 C33 1.98 33 3.96 33 6 C37.29 6 41.58 6 46 6 C46 4.02 46 2.04 46 0 C49.63 0 53.26 0 57 0 C57 4.95 57 9.9 57 15 C47.43 15 37.86 15 28 15 C27.67 13.68 27.34 12.36 27 11 C24.69 11 22.38 11 20 11 C19.67 12.32 19.34 13.64 19 15 C12.73 15 6.46 15 0 15 C0 10.05 0 5.1 0 0 Z " fill="#A97807" transform="translate(84,435)"/>
<path d="M0 0 C3.3 0 6.6 0 10 0 C10 16.83 10 33.66 10 51 C6.7 51 3.4 51 0 51 C0 34.17 0 17.34 0 0 Z " fill="#0B0F1C" transform="translate(726,192)"/>
<path d="M0 0 C3.89657545 -0.10798823 7.79015546 -0.18732013 11.6875 -0.25 C12.79029297 -0.28351563 13.89308594 -0.31703125 15.02929688 -0.3515625 C23.2058459 -0.45037276 23.2058459 -0.45037276 27.23046875 1.83203125 C29 4 29 4 29.625 6.9375 C28.74675828 11.24088444 27.58283764 12.41793079 24 15 C19.88047875 15.62042349 15.84141469 15.47030506 11.6875 15.3125 C10.00430664 15.27866211 10.00430664 15.27866211 8.28710938 15.24414062 C5.52416641 15.1853546 2.76191153 15.09567823 0 15 C0 10.05 0 5.1 0 0 Z " fill="#F9F9F9" transform="translate(1058,310)"/>
<path d="M0 0 C3.91707941 -0.08085714 7.83249359 -0.14043614 11.75 -0.1875 C12.86117187 -0.21263672 13.97234375 -0.23777344 15.1171875 -0.26367188 C16.18710937 -0.27333984 17.25703125 -0.28300781 18.359375 -0.29296875 C19.34389648 -0.3086792 20.32841797 -0.32438965 21.34277344 -0.34057617 C24.42932849 0.05502694 25.78329655 0.84803672 28 3 C28.390625 5.26171875 28.390625 5.26171875 28.25 7.6875 C28.21390625 8.49574219 28.1778125 9.30398437 28.140625 10.13671875 C28.07101562 11.05904297 28.07101562 11.05904297 28 12 C22.37101513 15.65980074 17.19011331 15.35268672 10.625 15.1875 C9.09166016 15.16719727 9.09166016 15.16719727 7.52734375 15.14648438 C5.01800067 15.11130667 2.50893071 15.0575052 0 15 C0 10.05 0 5.1 0 0 Z " fill="#F3F3F4" transform="translate(677,200)"/>
<path d="M0 0 C3.91739994 -0.10781835 7.831841 -0.18723773 11.75 -0.25 C13.41675781 -0.30027344 13.41675781 -0.30027344 15.1171875 -0.3515625 C16.18710937 -0.36445313 17.25703125 -0.37734375 18.359375 -0.390625 C19.34389648 -0.41157227 20.32841797 -0.43251953 21.34277344 -0.45410156 C24.75057274 0.12826767 25.90093791 1.306427 28 4 C28.7383924 7.85604921 28.39834985 9.40767109 26.203125 12.671875 C21.38321817 16.17512435 16.98093782 15.54253876 11.1875 15.3125 C9.57584961 15.27866211 9.57584961 15.27866211 7.93164062 15.24414062 C5.28716112 15.18537441 2.64340067 15.09569833 0 15 C0 10.05 0 5.1 0 0 Z " fill="#F7F7F7" transform="translate(571,290)"/>
<path d="M0 0 C3.91739994 -0.10781835 7.831841 -0.18723773 11.75 -0.25 C13.41675781 -0.30027344 13.41675781 -0.30027344 15.1171875 -0.3515625 C16.18710937 -0.36445313 17.25703125 -0.37734375 18.359375 -0.390625 C19.34389648 -0.41157227 20.32841797 -0.43251953 21.34277344 -0.45410156 C24.7516153 0.12844583 25.90810524 1.29822338 28 4 C28.50347322 7.45238782 28.41556154 9.26782014 26.6875 12.3125 C24.49060986 14.50939014 22.71110586 14.96579454 19.63989258 15.11352539 C18.73392334 15.10828857 17.8279541 15.10305176 16.89453125 15.09765625 C15.91162109 15.09443359 14.92871094 15.09121094 13.91601562 15.08789062 C12.89185547 15.07951172 11.86769531 15.07113281 10.8125 15.0625 C9.77673828 15.05798828 8.74097656 15.05347656 7.67382812 15.04882812 C5.1158608 15.03704026 2.55792314 15.01910482 0 15 C0 10.05 0 5.1 0 0 Z " fill="#F7F7F8" transform="translate(847,290)"/>
<path d="M0 0 C5.94 0 11.88 0 18 0 C19.299375 2.2275 20.59875 4.455 21.9375 6.75 C22.34605225 7.44448242 22.75460449 8.13896484 23.17553711 8.85449219 C24.96957466 11.96278219 26.12189249 14.48756995 27 18 C21.06 18 15.12 18 9 18 C7.700625 15.7725 6.40125 13.545 5.0625 11.25 C4.65394775 10.55551758 4.24539551 9.86103516 3.82446289 9.14550781 C2.03042534 6.03721781 0.87810751 3.51243005 0 0 Z " fill="#AA7909" transform="translate(1455,483)"/>
<path d="M0 0 C5.94 0 11.88 0 18 0 C19.299375 2.2275 20.59875 4.455 21.9375 6.75 C22.34605225 7.44448242 22.75460449 8.13896484 23.17553711 8.85449219 C24.96957466 11.96278219 26.12189249 14.48756995 27 18 C21.06 18 15.12 18 9 18 C7.700625 15.7725 6.40125 13.545 5.0625 11.25 C4.65394775 10.55551758 4.24539551 9.86103516 3.82446289 9.14550781 C2.03042534 6.03721781 0.87810751 3.51243005 0 0 Z " fill="#AA7909" transform="translate(1374,483)"/>
<path d="M0 0 C5.94 0 11.88 0 18 0 C19.299375 2.2275 20.59875 4.455 21.9375 6.75 C22.34605225 7.44448242 22.75460449 8.13896484 23.17553711 8.85449219 C24.96957466 11.96278219 26.12189249 14.48756995 27 18 C21.06 18 15.12 18 9 18 C7.700625 15.7725 6.40125 13.545 5.0625 11.25 C4.65394775 10.55551758 4.24539551 9.86103516 3.82446289 9.14550781 C2.03042534 6.03721781 0.87810751 3.51243005 0 0 Z " fill="#AA7909" transform="translate(1236,483)"/>
<path d="M0 0 C5.94 0 11.88 0 18 0 C19.299375 2.2275 20.59875 4.455 21.9375 6.75 C22.34605225 7.44448242 22.75460449 8.13896484 23.17553711 8.85449219 C24.96957466 11.96278219 26.12189249 14.48756995 27 18 C21.06 18 15.12 18 9 18 C7.700625 15.7725 6.40125 13.545 5.0625 11.25 C4.65394775 10.55551758 4.24539551 9.86103516 3.82446289 9.14550781 C2.03042534 6.03721781 0.87810751 3.51243005 0 0 Z " fill="#AA7909" transform="translate(1155,483)"/>
<path d="M0 0 C5.94 0 11.88 0 18 0 C19.299375 2.2275 20.59875 4.455 21.9375 6.75 C22.34605225 7.44448242 22.75460449 8.13896484 23.17553711 8.85449219 C24.96957466 11.96278219 26.12189249 14.48756995 27 18 C21.06 18 15.12 18 9 18 C7.700625 15.7725 6.40125 13.545 5.0625 11.25 C4.65394775 10.55551758 4.24539551 9.86103516 3.82446289 9.14550781 C2.03042534 6.03721781 0.87810751 3.51243005 0 0 Z " fill="#AA7909" transform="translate(1017,483)"/>
<path d="M0 0 C5.94 0 11.88 0 18 0 C19.299375 2.2275 20.59875 4.455 21.9375 6.75 C22.34605225 7.44448242 22.75460449 8.13896484 23.17553711 8.85449219 C24.96957466 11.96278219 26.12189249 14.48756995 27 18 C21.06 18 15.12 18 9 18 C7.700625 15.7725 6.40125 13.545 5.0625 11.25 C4.65394775 10.55551758 4.24539551 9.86103516 3.82446289 9.14550781 C2.03042534 6.03721781 0.87810751 3.51243005 0 0 Z " fill="#AA7909" transform="translate(936,483)"/>
<path d="M0 0 C5.94 0 11.88 0 18 0 C19.299375 2.2275 20.59875 4.455 21.9375 6.75 C22.34605225 7.44448242 22.75460449 8.13896484 23.17553711 8.85449219 C24.96957466 11.96278219 26.12189249 14.48756995 27 18 C21.06 18 15.12 18 9 18 C7.700625 15.7725 6.40125 13.545 5.0625 11.25 C4.65394775 10.55551758 4.24539551 9.86103516 3.82446289 9.14550781 C2.03042534 6.03721781 0.87810751 3.51243005 0 0 Z " fill="#AA7909" transform="translate(798,483)"/>
<path d="M0 0 C5.94 0 11.88 0 18 0 C19.299375 2.2275 20.59875 4.455 21.9375 6.75 C22.34605225 7.44448242 22.75460449 8.13896484 23.17553711 8.85449219 C24.96957466 11.96278219 26.12189249 14.48756995 27 18 C21.06 18 15.12 18 9 18 C7.700625 15.7725 6.40125 13.545 5.0625 11.25 C4.65394775 10.55551758 4.24539551 9.86103516 3.82446289 9.14550781 C2.03042534 6.03721781 0.87810751 3.51243005 0 0 Z " fill="#AA7909" transform="translate(717,483)"/>
<path d="M0 0 C5.94 0 11.88 0 18 0 C19.299375 2.2275 20.59875 4.455 21.9375 6.75 C22.34605225 7.44448242 22.75460449 8.13896484 23.17553711 8.85449219 C24.96957466 11.96278219 26.12189249 14.48756995 27 18 C21.06 18 15.12 18 9 18 C7.700625 15.7725 6.40125 13.545 5.0625 11.25 C4.65394775 10.55551758 4.24539551 9.86103516 3.82446289 9.14550781 C2.03042534 6.03721781 0.87810751 3.51243005 0 0 Z " fill="#AA7909" transform="translate(579,483)"/>
<path d="M0 0 C5.94 0 11.88 0 18 0 C19.299375 2.2275 20.59875 4.455 21.9375 6.75 C22.34605225 7.44448242 22.75460449 8.13896484 23.17553711 8.85449219 C24.96957466 11.96278219 26.12189249 14.48756995 27 18 C21.06 18 15.12 18 9 18 C7.700625 15.7725 6.40125 13.545 5.0625 11.25 C4.65394775 10.55551758 4.24539551 9.86103516 3.82446289 9.14550781 C2.03042534 6.03721781 0.87810751 3.51243005 0 0 Z " fill="#AA7909" transform="translate(498,483)"/>
<path d="M0 0 C5.94 0 11.88 0 18 0 C19.299375 2.2275 20.59875 4.455 21.9375 6.75 C22.34605225 7.44448242 22.75460449 8.13896484 23.17553711 8.85449219 C24.96957466 11.96278219 26.12189249 14.48756995 27 18 C21.06 18 15.12 18 9 18 C7.700625 15.7725 6.40125 13.545 5.0625 11.25 C4.65394775 10.55551758 4.24539551 9.86103516 3.82446289 9.14550781 C2.03042534 6.03721781 0.87810751 3.51243005 0 0 Z " fill="#AA7909" transform="translate(360,483)"/>
<path d="M0 0 C5.94 0 11.88 0 18 0 C19.299375 2.2275 20.59875 4.455 21.9375 6.75 C22.34605225 7.44448242 22.75460449 8.13896484 23.17553711 8.85449219 C24.96957466 11.96278219 26.12189249 14.48756995 27 18 C21.06 18 15.12 18 9 18 C7.700625 15.7725 6.40125 13.545 5.0625 11.25 C4.65394775 10.55551758 4.24539551 9.86103516 3.82446289 9.14550781 C2.03042534 6.03721781 0.87810751 3.51243005 0 0 Z " fill="#AA7909" transform="translate(279,483)"/>
<path d="M0 0 C5.94 0 11.88 0 18 0 C19.299375 2.2275 20.59875 4.455 21.9375 6.75 C22.34605225 7.44448242 22.75460449 8.13896484 23.17553711 8.85449219 C24.96957466 11.96278219 26.12189249 14.48756995 27 18 C21.06 18 15.12 18 9 18 C7.700625 15.7725 6.40125 13.545 5.0625 11.25 C4.65394775 10.55551758 4.24539551 9.86103516 3.82446289 9.14550781 C2.03042534 6.03721781 0.87810751 3.51243005 0 0 Z " fill="#AA7909" transform="translate(141,483)"/>
<path d="M0 0 C5.94 0 11.88 0 18 0 C19.299375 2.2275 20.59875 4.455 21.9375 6.75 C22.34605225 7.44448242 22.75460449 8.13896484 23.17553711 8.85449219 C24.96957466 11.96278219 26.12189249 14.48756995 27 18 C21.06 18 15.12 18 9 18 C7.700625 15.7725 6.40125 13.545 5.0625 11.25 C4.65394775 10.55551758 4.24539551 9.86103516 3.82446289 9.14550781 C2.03042534 6.03721781 0.87810751 3.51243005 0 0 Z " fill="#AA7909" transform="translate(60,483)"/>
<path d="M0 0 C5.94 0 11.88 0 18 0 C19.299375 2.2275 20.59875 4.455 21.9375 6.75 C22.34605225 7.44448242 22.75460449 8.13896484 23.17553711 8.85449219 C24.96957466 11.96278219 26.12189249 14.48756995 27 18 C21.06 18 15.12 18 9 18 C7.700625 15.7725 6.40125 13.545 5.0625 11.25 C4.65394775 10.55551758 4.24539551 9.86103516 3.82446289 9.14550781 C2.03042534 6.03721781 0.87810751 3.51243005 0 0 Z " fill="#AA7909" transform="translate(1455,450)"/>
<path d="M0 0 C5.94 0 11.88 0 18 0 C19.299375 2.2275 20.59875 4.455 21.9375 6.75 C22.34605225 7.44448242 22.75460449 8.13896484 23.17553711 8.85449219 C24.96957466 11.96278219 26.12189249 14.48756995 27 18 C21.06 18 15.12 18 9 18 C7.700625 15.7725 6.40125 13.545 5.0625 11.25 C4.65394775 10.55551758 4.24539551 9.86103516 3.82446289 9.14550781 C2.03042534 6.03721781 0.87810751 3.51243005 0 0 Z " fill="#AA7909" transform="translate(1236,450)"/>
<path d="M0 0 C5.94 0 11.88 0 18 0 C19.299375 2.2275 20.59875 4.455 21.9375 6.75 C22.34605225 7.44448242 22.75460449 8.13896484 23.17553711 8.85449219 C24.96957466 11.96278219 26.12189249 14.48756995 27 18 C21.06 18 15.12 18 9 18 C7.700625 15.7725 6.40125 13.545 5.0625 11.25 C4.65394775 10.55551758 4.24539551 9.86103516 3.82446289 9.14550781 C2.03042534 6.03721781 0.87810751 3.51243005 0 0 Z " fill="#AA7909" transform="translate(1017,450)"/>
<path d="M0 0 C5.94 0 11.88 0 18 0 C19.299375 2.2275 20.59875 4.455 21.9375 6.75 C22.34605225 7.44448242 22.75460449 8.13896484 23.17553711 8.85449219 C24.96957466 11.96278219 26.12189249 14.48756995 27 18 C21.06 18 15.12 18 9 18 C7.700625 15.7725 6.40125 13.545 5.0625 11.25 C4.65394775 10.55551758 4.24539551 9.86103516 3.82446289 9.14550781 C2.03042534 6.03721781 0.87810751 3.51243005 0 0 Z " fill="#AA7909" transform="translate(798,450)"/>
<path d="M0 0 C5.94 0 11.88 0 18 0 C19.299375 2.2275 20.59875 4.455 21.9375 6.75 C22.34605225 7.44448242 22.75460449 8.13896484 23.17553711 8.85449219 C24.96957466 11.96278219 26.12189249 14.48756995 27 18 C21.06 18 15.12 18 9 18 C7.700625 15.7725 6.40125 13.545 5.0625 11.25 C4.65394775 10.55551758 4.24539551 9.86103516 3.82446289 9.14550781 C2.03042534 6.03721781 0.87810751 3.51243005 0 0 Z " fill="#AA7909" transform="translate(579,450)"/>
<path d="M0 0 C5.94 0 11.88 0 18 0 C19.299375 2.2275 20.59875 4.455 21.9375 6.75 C22.34605225 7.44448242 22.75460449 8.13896484 23.17553711 8.85449219 C24.96957466 11.96278219 26.12189249 14.48756995 27 18 C21.06 18 15.12 18 9 18 C7.700625 15.7725 6.40125 13.545 5.0625 11.25 C4.65394775 10.55551758 4.24539551 9.86103516 3.82446289 9.14550781 C2.03042534 6.03721781 0.87810751 3.51243005 0 0 Z " fill="#AA7909" transform="translate(360,450)"/>
<path d="M0 0 C5.94 0 11.88 0 18 0 C19.299375 2.2275 20.59875 4.455 21.9375 6.75 C22.34605225 7.44448242 22.75460449 8.13896484 23.17553711 8.85449219 C24.96957466 11.96278219 26.12189249 14.48756995 27 18 C21.06 18 15.12 18 9 18 C7.700625 15.7725 6.40125 13.545 5.0625 11.25 C4.65394775 10.55551758 4.24539551 9.86103516 3.82446289 9.14550781 C2.03042534 6.03721781 0.87810751 3.51243005 0 0 Z " fill="#AA7909" transform="translate(141,450)"/>
<path d="M0 0 C3.93790783 -0.0807316 7.87417069 -0.14037469 11.8125 -0.1875 C13.49182617 -0.22520508 13.49182617 -0.22520508 15.20507812 -0.26367188 C16.27822266 -0.27333984 17.35136719 -0.28300781 18.45703125 -0.29296875 C19.9416687 -0.31653442 19.9416687 -0.31653442 21.45629883 -0.34057617 C24 0 24 0 25.82299805 1.33081055 C27.65249286 3.92534613 27.38491341 5.92069271 27 9 C25.82299805 10.66918945 25.82299805 10.66918945 24 12 C21.45629883 12.34057617 21.45629883 12.34057617 18.45703125 12.29296875 C16.84731445 12.2784668 16.84731445 12.2784668 15.20507812 12.26367188 C14.08552734 12.23853516 12.96597656 12.21339844 11.8125 12.1875 C10.68134766 12.17396484 9.55019531 12.16042969 8.38476562 12.14648438 C5.58964118 12.11110305 2.79476111 12.05729579 0 12 C0 8.04 0 4.08 0 0 Z " fill="#FDFDFD" transform="translate(1058,290)"/>
<path d="M0 0 C5.94 0 11.88 0 18 0 C18 4.95 18 9.9 18 15 C12.06 15 6.12 15 0 15 C0 10.05 0 5.1 0 0 Z " fill="#A97705" transform="translate(1482,468)"/>
<path d="M0 0 C5.94 0 11.88 0 18 0 C18 4.95 18 9.9 18 15 C12.06 15 6.12 15 0 15 C0 10.05 0 5.1 0 0 Z " fill="#A97705" transform="translate(1482,435)"/>
<path d="M0 0 C2.08772783 2.08772783 2.68587124 3.38444665 3.7265625 6.09765625 C4.0359375 6.89880859 4.3453125 7.69996094 4.6640625 8.52539062 C4.98117187 9.36263672 5.29828125 10.19988281 5.625 11.0625 C5.94984375 11.90361328 6.2746875 12.74472656 6.609375 13.61132812 C9 19.84402902 9 19.84402902 9 21 C3.39 21 -2.22 21 -8 21 C-7.09262391 16.46311953 -5.73558574 12.49891037 -4 8.25 C-3.59007812 7.22326172 -3.59007812 7.22326172 -3.171875 6.17578125 C-1.13600498 1.13600498 -1.13600498 1.13600498 0 0 Z " fill="#F6F6F7" transform="translate(1130,291)"/>
<path d="M0 0 C2.70223655 2.70223655 3.74294689 5.88349742 5.125 9.375 C5.40214844 10.04789062 5.67929687 10.72078125 5.96484375 11.4140625 C7.34670339 14.8721152 8 17.22352754 8 21 C2.72 21 -2.56 21 -8 21 C-7.09262391 16.46311953 -5.73558574 12.49891037 -4 8.25 C-3.59007812 7.22326172 -3.59007812 7.22326172 -3.171875 6.17578125 C-1.13600498 1.13600498 -1.13600498 1.13600498 0 0 Z " fill="#F5F5F6" transform="translate(802,291)"/>
<path d="M0 0 C2.97932935 3.48930465 4.54739251 7.39716735 6.1875 11.625 C6.46013672 12.305625 6.73277344 12.98625 7.01367188 13.6875 C9 18.72550517 9 18.72550517 9 21 C3.39 21 -2.22 21 -8 21 C-5.72564796 13.81783567 -2.96415819 6.9241798 0 0 Z " fill="#F6F6F6" transform="translate(583,201)"/>
<path d="M0 0 C3.78068368 2.52045579 4.63382124 5.35957277 6.1875 9.4375 C6.59645508 10.4594043 6.59645508 10.4594043 7.01367188 11.50195312 C8.17463784 14.47274573 9 16.78366788 9 20 C3.39 20 -2.22 20 -8 20 C-7.05125 17.4425 -6.1025 14.885 -5.125 12.25 C-4.82996582 11.45110352 -4.53493164 10.65220703 -4.23095703 9.82910156 C-2.97398418 6.45963348 -1.71797596 3.16908188 0 0 Z " fill="#F6F6F7" transform="translate(832,202)"/>
</svg>
