<?xml version="1.0" encoding="UTF-8"?>
<svg version="1.1" xmlns="http://www.w3.org/2000/svg" width="480" height="480">
<path d="M0 0 C158.4 0 316.8 0 480 0 C480 158.4 480 316.8 480 480 C321.6 480 163.2 480 0 480 C0 321.6 0 163.2 0 0 Z " fill="#FEFEFE" transform="translate(0,0)"/>
<path d="M0 0 C1.3948613 0.00303635 1.3948613 0.00303635 2.81790161 0.00613403 C4.2787468 0.00350555 4.2787468 0.00350555 5.769104 0.00082397 C9.0054398 -0.00359642 12.24172146 -0.00065589 15.47805786 0.00271606 C17.71625784 0.00204308 19.95445774 0.0010731 22.19265747 -0.00018311 C26.89033705 -0.00166033 31.58799766 0.00049528 36.28567505 0.00515747 C42.322164 0.01085477 48.3586085 0.0075759 54.39509583 0.00158501 C59.01887347 -0.00201993 63.6426405 -0.00088233 68.26641846 0.0017128 C70.49287928 0.00238225 72.71934106 0.001553 74.94580078 -0.00076675 C78.05163141 -0.00329218 81.15738896 0.00054576 84.26321411 0.00613403 C85.19312164 0.0041098 86.12302917 0.00208557 87.08111572 0 C93.4262956 0.0212663 93.4262956 0.0212663 94.54055786 1.13552856 C94.81126685 4.77506052 94.98701303 8.4079638 95.14602661 12.05349731 C94.96754881 15.91025949 94.96754881 15.91025949 96.54055786 19.13552856 C99.19511979 19.23648421 101.82310962 19.27523855 104.47805786 19.26834106 C105.67096436 19.26977615 105.67096436 19.26977615 106.88796997 19.27124023 C108.57262247 19.271922 110.25727757 19.27006799 111.94192505 19.26589966 C114.52954983 19.26055132 117.11700102 19.26584475 119.70462036 19.27224731 C121.33743325 19.27158653 122.97024602 19.27030537 124.60305786 19.26834106 C125.38221558 19.2703653 126.16137329 19.27238953 126.96414185 19.2744751 C130.54849986 19.59392436 130.54849986 19.59392436 133.54055786 18.13552856 C133.77746747 14.73982421 133.93697476 11.35136155 134.05813599 7.94998169 C134.32727661 2.34880981 134.32727661 2.34880981 136.54055786 0.13552856 C139.50564575 -0.10739136 139.50564575 -0.10739136 143.26321411 -0.09494019 C143.92389389 -0.09448196 144.58457367 -0.09402374 145.26527405 -0.09355164 C146.66149696 -0.09053065 148.05771653 -0.08264885 149.45388794 -0.07028198 C151.59813285 -0.0520134 153.74194635 -0.04977237 155.88626099 -0.05001831 C166.39312574 -0.01190355 166.39312574 -0.01190355 167.54055786 1.13552856 C167.63343047 2.54777902 167.65802558 3.96461791 167.65408325 5.37991333 C167.65400772 6.28077164 167.65393219 7.18162994 167.65385437 8.10978699 C167.64869308 9.08894577 167.6435318 10.06810455 167.63821411 11.07693481 C167.63609169 12.57304543 167.63609169 12.57304543 167.63392639 14.09938049 C167.628309 17.2989598 167.61575357 20.49847025 167.60305786 23.69802856 C167.5980451 25.86143902 167.59348181 28.02485056 167.58938599 30.18826294 C167.57833393 35.50404182 167.5615789 40.81978027 167.54055786 46.13552856 C164.38718103 47.71221698 161.00491442 47.28279243 157.54251099 47.28079224 C156.30331154 47.28583015 156.30331154 47.28583015 155.03907776 47.29096985 C152.29997263 47.30049259 149.56092853 47.3024235 146.82180786 47.30349731 C144.92373631 47.30670855 143.02566501 47.31007252 141.12759399 47.31358337 C137.14626491 47.31957766 133.16495755 47.32142292 129.18362427 47.3208313 C124.07204826 47.32072956 118.96061081 47.33439235 113.84906769 47.35160351 C109.92867386 47.36269881 106.00831381 47.36475128 102.08790588 47.36422157 C100.20277935 47.36540502 98.31765204 47.36984707 96.43254089 47.37755394 C93.8011288 47.38730583 91.1700213 47.38449514 88.53860474 47.37844849 C87.36188454 47.38687775 87.36188454 47.38687775 86.16139221 47.39547729 C80.76887458 47.36384528 80.76887458 47.36384528 78.54055786 45.13552856 C78.16165161 42.56912231 78.16165161 42.56912231 77.97805786 39.57302856 C78.04258574 36.04136049 78.04258574 36.04136049 76.54055786 33.13552856 C74.91798242 33.03636286 73.29115955 33.0047308 71.66555786 33.00271606 C70.68071411 33.001427 69.69587036 33.00013794 68.68118286 32.99880981 C67.12657349 33.0046106 67.12657349 33.0046106 65.54055786 33.01052856 C64.50415161 33.00666138 63.46774536 33.00279419 62.39993286 32.99880981 C61.41508911 33.00009888 60.43024536 33.00138794 59.41555786 33.00271606 C58.05044067 33.00440796 58.05044067 33.00440796 56.65774536 33.00613403 C54.55527306 32.89992848 54.55527306 32.89992848 53.54055786 34.13552856 C53.25657935 36.94376056 53.09209121 39.75199491 52.91946411 42.56912231 C52.54055786 45.13552856 52.54055786 45.13552856 50.54055786 47.13552856 C48.18753052 47.38949585 48.18753052 47.38949585 45.20462036 47.39431763 C44.0900647 47.40062195 42.97550903 47.40692627 41.82717896 47.41342163 C40.61884399 47.40937317 39.41050903 47.40532471 38.16555786 47.40115356 C36.31244995 47.40402374 36.31244995 47.40402374 34.42190552 47.4069519 C31.13464379 47.40866467 27.84756999 47.40059556 24.56033325 47.38943481 C22.54261257 47.38553254 20.52506585 47.38942027 18.50735474 47.39627075 C14.64333958 47.4085886 10.77958358 47.40713834 6.91555786 47.40115356 C5.7072229 47.40520203 4.49888794 47.40925049 3.25393677 47.41342163 C1.58210327 47.40396515 1.58210327 47.40396515 -0.12350464 47.39431763 C-1.10786499 47.39272644 -2.09222534 47.39113525 -3.10641479 47.38949585 C-5.45944214 47.13552856 -5.45944214 47.13552856 -7.45944214 45.13552856 C-7.7066803 43.2313385 -7.7066803 43.2313385 -7.70236206 40.88528442 C-7.70543869 40.00775009 -7.70851532 39.13021576 -7.71168518 38.22608948 C-7.70449966 37.27710281 -7.69731415 36.32811615 -7.68991089 35.35037231 C-7.68945267 34.37894791 -7.68899445 33.4075235 -7.68852234 32.40666199 C-7.68549837 30.35134664 -7.67760779 28.29603361 -7.66525269 26.24075317 C-7.64699717 23.08254952 -7.64474295 19.92463884 -7.64498901 16.76638794 C-7.64007395 14.77354685 -7.63424569 12.78070775 -7.62741089 10.78787231 C-7.62629807 9.83686142 -7.62518524 8.88585052 -7.6240387 7.90602112 C-7.61765884 7.03163895 -7.61127899 6.15725677 -7.60470581 5.25637817 C-7.60089401 4.48297592 -7.59708221 3.70957367 -7.59315491 2.91273499 C-7.27175038 -1.35912476 -3.42226478 0.01146995 0 0 Z " fill="#A97706" transform="translate(162.45944213867188,277.8644714355469)"/>
<path d="M0 0 C2.03959946 -0.01256552 4.07958351 0.00845213 6.11865234 0.05664062 C7.19585541 0.06038696 8.27305847 0.0641333 9.38290405 0.06799316 C11.6575765 0.08142923 13.93220292 0.10924937 16.20654297 0.15039062 C19.6985133 0.21278205 23.18867958 0.23233841 26.68115234 0.24414062 C28.88950782 0.26247769 31.09784485 0.2832283 33.30615234 0.30664062 C34.35509674 0.31514038 35.40404114 0.32364014 36.48477173 0.33239746 C37.45272675 0.35161255 38.42068176 0.37082764 39.41796875 0.390625 C40.27194244 0.40428101 41.12591614 0.41793701 42.00576782 0.43200684 C44.07958984 0.71289062 44.07958984 0.71289062 46.07958984 2.71289062 C46.040432 8.91940875 42.37737917 13.9090982 39.32958984 19.08789062 C38.13491663 21.15706992 36.94226845 23.22741948 35.75146484 25.29882812 C34.83397461 26.89162598 34.83397461 26.89162598 33.89794922 28.51660156 C31.04169196 33.53729437 28.31003515 38.62300708 25.57958984 43.71289062 C21.38129074 51.51837437 17.09487274 59.26382374 12.70458984 66.96289062 C7.77219248 75.61866117 3.01458025 84.35922937 -1.67041016 93.15039062 C-10.15316415 109.0564589 -10.15316415 109.0564589 -14.10791016 116.15039062 C-14.4459668 116.76390381 -14.78402344 117.37741699 -15.13232422 118.00952148 C-16.0259243 119.59796637 -16.97143466 121.15689455 -17.92041016 122.71289062 C-18.38600342 123.5883252 -18.85159668 124.46375977 -19.33129883 125.36572266 C-23.46293102 129.11126833 -27.79592201 128.37003311 -33.17822266 128.27148438 C-34.27762177 128.26915298 -35.37702087 128.26682159 -36.50973511 128.26441956 C-38.8314389 128.25468199 -41.1531189 128.23289493 -43.47460938 128.19995117 C-47.03892955 128.15048057 -50.60187122 128.13846752 -54.16650391 128.1328125 C-56.42042493 128.11872937 -58.67433391 128.10252601 -60.92822266 128.08398438 C-62.53444992 128.07594032 -62.53444992 128.07594032 -64.17312622 128.06773376 C-65.65508987 128.04375267 -65.65508987 128.04375267 -67.16699219 128.01928711 C-68.03873077 128.00864731 -68.91046936 127.99800751 -69.80862427 127.98704529 C-71.92041016 127.71289062 -71.92041016 127.71289062 -73.92041016 125.71289062 C-73.62389547 120.98379678 -72.04462503 117.68254786 -69.67431641 113.63476562 C-69.3478009 113.07075546 -69.0212854 112.5067453 -68.68487549 111.92564392 C-67.62573869 110.09982065 -66.55430367 108.28154332 -65.48291016 106.46289062 C-64.74380094 105.19243626 -64.00577105 103.92135339 -63.26879883 102.6496582 C-62.16780415 100.75002681 -61.06625171 98.85075387 -59.96125793 96.95344543 C-57.15590425 92.1359076 -54.42022657 87.28449969 -51.73291016 82.40039062 C-46.42409952 72.78668621 -41.01015855 63.23312798 -35.59814453 53.67724609 C-33.93784323 50.74369278 -32.28020089 47.80865462 -30.62353516 44.87304688 C-27.39385553 39.1503319 -24.15911803 33.43050082 -20.92041016 27.71289062 C-20.36869141 26.73852051 -19.81697266 25.76415039 -19.24853516 24.76025391 C-17.62099799 21.88877259 -15.99002943 19.01926952 -14.35791016 16.15039062 C-13.8692749 15.28784668 -13.38063965 14.42530273 -12.87719727 13.53662109 C-12.18509155 12.32256592 -12.18509155 12.32256592 -11.47900391 11.08398438 C-11.0799585 10.38200928 -10.68091309 9.68003418 -10.26977539 8.95678711 C-9.82448486 8.21630127 -9.37919434 7.47581543 -8.92041016 6.71289062 C-8.43531982 5.64627197 -7.95022949 4.57965332 -7.45043945 3.48071289 C-4.57523978 0.33527829 -4.05027149 0.2714516 0 0 Z " fill="#A97806" transform="translate(228.92041015625,130.287109375)"/>
<path d="M0 0 C0.9480098 -0.01606293 1.89601959 -0.03212585 2.87275696 -0.04867554 C7.2175744 -0.09297256 11.56223625 -0.13419603 15.90722656 -0.15722656 C18.20127504 -0.17379009 20.49527183 -0.20108506 22.7890625 -0.23925781 C26.08905938 -0.29392894 29.3878441 -0.31588677 32.68823242 -0.33056641 C33.71439163 -0.35323578 34.74055084 -0.37590515 35.79780579 -0.39926147 C42.89817357 -0.3781262 42.89817357 -0.3781262 46.02832031 2.390625 C46.77843384 3.77773682 46.77843384 3.77773682 47.54370117 5.19287109 C48.06528809 6.04848633 48.586875 6.90410156 49.12426758 7.78564453 C49.87716064 9.1551123 49.87716064 9.1551123 50.64526367 10.55224609 C51.49773682 12.09078247 51.49773682 12.09078247 52.36743164 13.66040039 C52.96185059 14.74361572 53.55626953 15.82683105 54.16870117 16.94287109 C59.29267921 26.2523302 59.29267921 26.2523302 64.68432617 35.40771484 C65.38307861 36.55578613 65.38307861 36.55578613 66.09594727 37.72705078 C66.95239969 39.12127566 67.81929786 40.50915964 68.69848633 41.88916016 C71.10128358 45.81321885 72.11022191 48.58470854 71.54370117 53.19287109 C69.94750825 54.78906401 68.24071369 54.38432669 66.02734375 54.44921875 C65.06576859 54.47819244 64.10419342 54.50716614 63.11347961 54.53701782 C58.69677467 54.63426925 54.2802376 54.70858511 49.86279297 54.76269531 C47.5336632 54.79934388 45.20474331 54.85390212 42.87646484 54.92675781 C39.52128962 55.03021401 36.16975712 55.07462958 32.81323242 55.10693359 C31.775522 55.15024811 30.73781158 55.19356262 29.6686554 55.2381897 C22.60537907 55.21977575 22.60537907 55.21977575 19.64852905 52.35977173 C18.07403792 50.03825052 16.78857575 47.70468845 15.54370117 45.19287109 C14.8656543 44.06510254 14.18760742 42.93733398 13.48901367 41.77539062 C12.88831055 40.7194873 12.28760742 39.66358398 11.66870117 38.57568359 C11.17007568 37.70168411 11.17007568 37.70168411 10.66137695 36.81002808 C9.96762748 35.59264683 9.27540949 34.37439157 8.5847168 33.15527344 C7.54833308 31.32604646 6.50739929 29.49947331 5.46557617 27.67333984 C4.1169144 25.30742779 2.77793389 22.9364257 1.44604492 20.56103516 C0.21037945 18.37324757 -1.04637711 16.19719099 -2.32739258 14.03564453 C-2.88555664 13.07432617 -3.4437207 12.11300781 -4.01879883 11.12255859 C-4.51508789 10.28708496 -5.01137695 9.45161133 -5.52270508 8.59082031 C-6.65708201 5.67715655 -6.39032899 4.13851129 -5.45629883 1.19287109 C-3.86612994 -0.3972978 -2.20520329 0.03382494 0 0 Z " fill="#AA7908" transform="translate(258.456298828125,203.80712890625)"/>
</svg>
